<svg width="43" height="43" viewBox="0 0 43 43" fill="none" xmlns="http://www.w3.org/2000/svg">
<path d="M21 3L5 8.42857V24.7143C5 33.7096 12.1625 41 21 41C29.8375 41 37 33.7096 37 24.7143V8.42857L21 3ZM34 24.7143C34 32.0217 28.1792 37.9464 21 37.9464C13.8208 37.9464 8 32.0217 8 24.7143V10.7187L21 6.05357L34 10.7187V24.7143Z" fill="white"/>
<path d="M15.612 20.1573C15.4702 20.0206 15.3017 19.9122 15.1161 19.8382C14.9306 19.7642 14.7316 19.7261 14.5307 19.7261C14.3297 19.7261 14.1307 19.7642 13.9452 19.8382C13.7596 19.9122 13.5911 20.0206 13.4493 20.1573C13.3069 20.2933 13.1939 20.455 13.1168 20.6331C13.0397 20.8111 13 21.002 13 21.1948C13 21.3876 13.0397 21.5786 13.1168 21.7566C13.1939 21.9347 13.3069 22.0963 13.4493 22.2324L18.9473 27.5077L19.0365 27.5933C19.1706 27.7223 19.3299 27.8245 19.5052 27.8943C19.6805 27.9641 19.8685 28 20.0583 28C20.2481 28 20.4361 27.9641 20.6114 27.8943C20.7868 27.8245 20.9461 27.7223 21.0802 27.5933L30.5762 18.4817C30.7105 18.3531 30.8171 18.2002 30.8898 18.032C30.9626 17.8638 31 17.6834 31 17.5013C31 17.3191 30.9626 17.1388 30.8898 16.9705C30.8171 16.8023 30.7105 16.6495 30.5762 16.5208L30.4572 16.4067C30.3231 16.2777 30.1638 16.1755 29.9885 16.1057C29.8132 16.0359 29.6252 16 29.4354 16C29.2456 16 29.0576 16.0359 28.8823 16.1057C28.7069 16.1755 28.5476 16.2777 28.4136 16.4067L20.0562 24.4216L15.612 20.1573Z" fill="white"/>
</svg>
