<svg width="43" height="43" viewBox="0 0 43 43" fill="none" xmlns="http://www.w3.org/2000/svg">
<path d="M21.5 22C19.5063 22 17.875 20.38 17.875 18.4C17.875 16.42 19.5063 14.8 21.5 14.8C23.4937 14.8 25.125 16.42 25.125 18.4C25.125 20.38 23.4937 22 21.5 22ZM32.375 18.76C32.375 12.226 27.5719 7.6 21.5 7.6C15.4281 7.6 10.625 12.226 10.625 18.76C10.625 22.972 14.1594 28.552 21.5 35.212C28.8406 28.552 32.375 22.972 32.375 18.76ZM21.5 4C29.1125 4 36 9.796 36 18.76C36 24.736 31.1606 31.81 21.5 40C11.8394 31.81 7 24.736 7 18.76C7 9.796 13.8875 4 21.5 4Z" fill="white"/>
</svg>
