<svg width="43" height="43" viewBox="0 0 43 43" fill="none" xmlns="http://www.w3.org/2000/svg">
<path d="M22 36.4C25.8191 36.4 29.4818 34.8829 32.1823 32.1823C34.8829 29.4818 36.4 25.8191 36.4 22C36.4 18.1809 34.8829 14.5182 32.1823 11.8177C29.4818 9.11714 25.8191 7.6 22 7.6C18.1809 7.6 14.5182 9.11714 11.8177 11.8177C9.11714 14.5182 7.6 18.1809 7.6 22C7.6 25.8191 9.11714 29.4818 11.8177 32.1823C14.5182 34.8829 18.1809 36.4 22 36.4ZM22 4C24.3638 4 26.7044 4.46558 28.8883 5.37017C31.0722 6.27475 33.0565 7.60062 34.7279 9.27208C36.3994 10.9435 37.7252 12.9278 38.6298 15.1117C39.5344 17.2956 40 19.6362 40 22C40 26.7739 38.1036 31.3523 34.7279 34.7279C31.3523 38.1036 26.7739 40 22 40C12.046 40 4 31.9 4 22C4 17.2261 5.89642 12.6477 9.27208 9.27208C12.6477 5.89642 17.2261 4 22 4ZM22.9 13V22.45L31 27.256L29.65 29.47L20.2 23.8V13H22.9Z" fill="white"/>
</svg>
