<svg width="40" height="40" viewBox="0 0 40 40" fill="none" xmlns="http://www.w3.org/2000/svg">
<path d="M18.3334 33.3333V36.6666H5.00002C3.16669 36.6666 1.66669 35.1666 1.66669 33.3333V6.66665C1.66669 4.83331 3.16669 3.33331 5.00002 3.33331H35C36.8334 3.33331 38.3334 4.83331 38.3334 6.66665V20.1666L38 19.8333C37.1667 19 36.1667 18.5 35 18.5V9.99998H5.00002V33.3333H18.3334ZM35.6667 22.1666L37.8334 24.3333C38.1667 24.6666 38.1667 25.3333 37.8334 25.6666L36.1667 27.3333L32.6667 23.8333L34.3334 22.1666C34.5 22 34.6667 21.8333 35 21.8333C35.3334 21.8333 35.5 22 35.6667 22.1666ZM35.1667 28.1666L25.1667 38.3333H21.6667V34.8333L31.8334 24.6666L35.1667 28.1666Z" fill="white"/>
</svg>
