<svg width="43" height="43" viewBox="0 0 43 43" fill="none" xmlns="http://www.w3.org/2000/svg">
<g clip-path="url(#clip0_28_118)">
<path fill-rule="evenodd" clip-rule="evenodd" d="M10.4073 5C8.97318 5 7.59782 5.5619 6.58376 6.5621C5.56969 7.56229 5 8.91885 5 10.3333V31.6667C5 33.0812 5.56969 34.4377 6.58376 35.4379C7.59782 36.4381 8.97318 37 10.4073 37H32.0364C33.4705 37 34.8459 36.4381 35.8599 35.4379C36.874 34.4377 37.4437 33.0812 37.4437 31.6667V22.7778C37.4437 22.3063 37.2538 21.8541 36.9158 21.5207C36.5777 21.1873 36.1193 21 35.6413 21C35.1632 21 34.7048 21.1873 34.3667 21.5207C34.0287 21.8541 33.8388 22.3063 33.8388 22.7778V31.6667C33.8388 32.1382 33.6489 32.5903 33.3109 32.9237C32.9729 33.2571 32.5144 33.4444 32.0364 33.4444H10.4073C9.92925 33.4444 9.47079 33.2571 9.13277 32.9237C8.79475 32.5903 8.60485 32.1382 8.60485 31.6667V10.3333C8.60485 9.86184 8.79475 9.40965 9.13277 9.07625C9.47079 8.74286 9.92925 8.55556 10.4073 8.55556H24.8267C25.3047 8.55556 25.7632 8.36825 26.1012 8.03486C26.4392 7.70146 26.6291 7.24927 26.6291 6.77778C26.6291 6.30628 26.4392 5.8541 26.1012 5.5207C25.7632 5.1873 25.3047 5 24.8267 5H10.4073ZM38.089 10.4133C38.5042 10.1803 38.8087 9.79414 38.9354 9.33977C39.0622 8.88541 39.0008 8.4 38.7649 7.99022C38.5252 7.5837 38.1334 7.28613 37.6737 7.16147C37.214 7.03681 36.723 7.09501 36.3064 7.32356C35.6701 7.67911 35.0555 8.07733 34.4499 8.47911C32.9146 9.49865 31.4328 10.5946 30.0105 11.7627C27.0509 14.1911 23.4965 17.6116 20.5676 21.928C19.6591 20.7435 18.6016 19.6778 17.4205 18.7564C16.6509 18.1644 15.7947 17.5831 14.8701 17.2524C14.4212 17.09 13.9235 17.1101 13.4897 17.3083C13.0558 17.5065 12.7196 17.8666 12.5549 18.3093C12.3902 18.7521 12.4106 19.2412 12.6115 19.6691C12.8125 20.097 13.1775 20.4287 13.6264 20.5911C13.6715 20.6089 14.2933 20.8578 15.2053 21.56C16.2471 22.36 17.6855 23.7627 19.0733 26.1058C19.233 26.3755 19.4619 26.599 19.737 26.7538C20.0121 26.9085 20.3237 26.9891 20.6404 26.9873C20.957 26.9855 21.2677 26.9014 21.5409 26.7435C21.8142 26.5857 22.0405 26.3596 22.197 26.088C25.052 21.1262 29.0227 17.1991 32.3158 14.4969C33.956 13.1511 35.416 12.1218 36.4578 11.432C36.9895 11.0782 37.5302 10.7316 38.0872 10.4151L38.089 10.4133Z" fill="white"/>
</g>
<defs>
<clipPath id="clip0_28_118">
<rect width="43" height="43" fill="white"/>
</clipPath>
</defs>
</svg>
