<svg width="43" height="43" viewBox="0 0 43 43" fill="none" xmlns="http://www.w3.org/2000/svg">
<path d="M6.26997 13.8406C6.27032 12.144 6.71021 10.4762 7.54695 8.99917C8.38368 7.52214 9.58884 6.28602 11.0455 5.41076C12.5021 4.5355 14.1608 4.05083 15.8605 4.00379C17.5602 3.95674 19.2432 4.34891 20.7462 5.14224C22.2492 5.93557 23.5212 7.10313 24.4387 8.5316C25.3562 9.96007 25.8881 11.6009 25.9827 13.295C26.0773 14.989 25.7315 16.6787 24.9788 18.2001C24.226 19.7214 23.0919 21.0228 21.6865 21.9779C24.713 23.0855 27.338 25.0715 29.2238 27.6804C31.1096 30.2892 32.1698 33.4015 32.2679 36.6167C32.2638 36.9633 32.1255 37.2949 31.8821 37.5423C31.6386 37.7896 31.3088 37.9335 30.9615 37.9439C30.6143 37.9543 30.2764 37.8304 30.0185 37.598C29.7607 37.3657 29.6028 37.043 29.5778 36.6972C29.471 33.2101 28.0077 29.9015 25.4979 27.4726C22.9882 25.0437 19.6294 23.6853 16.1331 23.6853C12.6368 23.6853 9.27795 25.0437 6.76824 27.4726C4.25853 29.9015 2.79523 33.2101 2.68843 36.6972C2.67048 37.0476 2.51568 37.3772 2.25721 37.6151C1.99874 37.8531 1.65716 37.9806 1.30563 37.9703C0.954102 37.96 0.620597 37.8127 0.37656 37.56C0.132522 37.3073 -0.00263621 36.9694 3.89679e-05 36.6184C0.0978746 33.403 1.15791 30.2903 3.04369 27.6811C4.92948 25.0719 7.5547 23.0856 10.5814 21.9779C9.25219 21.0753 8.16439 19.8619 7.41289 18.4436C6.66139 17.0252 6.26902 15.445 6.26997 13.8406ZM16.134 6.68232C14.2314 6.68232 12.4067 7.4365 11.0613 8.77895C9.71597 10.1214 8.96016 11.9421 8.96016 13.8406C8.96016 15.7392 9.71597 17.5599 11.0613 18.9023C12.4067 20.2448 14.2314 20.999 16.134 20.999C18.0366 20.999 19.8613 20.2448 21.2067 18.9023C22.552 17.5599 23.3078 15.7392 23.3078 13.8406C23.3078 11.9421 22.552 10.1214 21.2067 8.77895C19.8613 7.4365 18.0366 6.68232 16.134 6.68232ZM31.0018 13.8406C30.7363 13.8406 30.4781 13.8585 30.2234 13.8943C30.0456 13.9261 29.8632 13.9218 29.6871 13.8817C29.511 13.8416 29.3448 13.7665 29.1984 13.6609C29.052 13.5554 28.9284 13.4214 28.835 13.2672C28.7416 13.1129 28.6803 12.9414 28.6547 12.763C28.6292 12.5845 28.6399 12.4028 28.6863 12.2286C28.7327 12.0544 28.8137 11.8913 28.9247 11.749C29.0356 11.6068 29.1741 11.4883 29.3319 11.4006C29.4897 11.3129 29.6636 11.2578 29.8432 11.2386C31.6269 10.9813 33.4458 11.3231 35.0135 12.2102C36.5812 13.0973 37.8088 14.4795 38.5031 16.1391C39.1974 17.7986 39.3189 19.6415 38.8486 21.3775C38.3783 23.1136 37.3428 24.6443 35.9051 25.7288C38.0185 26.6731 39.8129 28.2074 41.0718 30.1467C42.3307 32.0859 43.0004 34.3472 43 36.6578C43 37.0138 42.8583 37.3552 42.606 37.6069C42.3538 37.8586 42.0116 38 41.6549 38C41.2982 38 40.956 37.8586 40.7038 37.6069C40.4515 37.3552 40.3098 37.0138 40.3098 36.6578C40.3096 34.6609 39.6648 32.7172 38.4709 31.1146C37.277 29.5119 35.5975 28.3357 33.6812 27.76L32.7235 27.4737V24.4743L33.4588 24.1003C34.5488 23.5494 35.4209 22.648 35.9343 21.5417C36.4478 20.4353 36.5726 19.1886 36.2886 18.0028C36.0046 16.817 35.3284 15.7612 34.3692 15.0061C33.4099 14.2509 32.2236 13.8403 31.0018 13.8406Z" fill="white"/>
</svg>
