<svg width="43" height="43" viewBox="0 0 43 43" fill="none" xmlns="http://www.w3.org/2000/svg">
<path d="M13.4 12.0769H18.8M13.4 21.5H29.6M13.4 26.8846H29.6M13.4 32.2692H18.8M10.7 39H32.3C33.0161 39 33.7028 38.7163 34.2092 38.2114C34.7155 37.7065 35 37.0217 35 36.3077V6.69231C35 5.97826 34.7155 5.29346 34.2092 4.78856C33.7028 4.28365 33.0161 4 32.3 4H10.7C9.98392 4 9.29716 4.28365 8.79081 4.78856C8.28446 5.29346 8 5.97826 8 6.69231V36.3077C8 37.0217 8.28446 37.7065 8.79081 38.2114C9.29716 38.7163 9.98392 39 10.7 39Z" stroke="white" stroke-width="2" stroke-linecap="round" stroke-linejoin="round"/>
<path d="M29.5 12C29.7761 12 30 11.7761 30 11.5C30 11.2239 29.7761 11 29.5 11C29.2239 11 29 11.2239 29 11.5C29 11.7761 29.2239 12 29.5 12Z" fill="white" stroke="white"/>
</svg>
