<svg width="45" height="30" viewBox="0 0 45 30" fill="none" xmlns="http://www.w3.org/2000/svg">
<path d="M43.7727 21.9512H41.7273V4.02439C41.7273 2.95706 41.2532 1.93344 40.4093 1.17872C39.5653 0.423997 38.4207 0 37.2273 0H7.77273C6.57925 0 5.43466 0.423997 4.59075 1.17872C3.74683 1.93344 3.27273 2.95706 3.27273 4.02439V21.9512H1.22727C0.90178 21.9512 0.589618 22.0669 0.35946 22.2727C0.129301 22.4785 0 22.7577 0 23.0488V25.9756C0 27.0429 0.474106 28.0666 1.31802 28.8213C2.16193 29.576 3.30653 30 4.5 30H40.5C41.6935 30 42.8381 29.576 43.682 28.8213C44.5259 28.0666 45 27.0429 45 25.9756V23.0488C45 22.7577 44.8707 22.4785 44.6405 22.2727C44.4104 22.0669 44.0982 21.9512 43.7727 21.9512ZM5.72727 4.02439C5.72727 3.53924 5.94278 3.07396 6.32637 2.7309C6.70997 2.38785 7.23024 2.19512 7.77273 2.19512H37.2273C37.7698 2.19512 38.29 2.38785 38.6736 2.7309C39.0572 3.07396 39.2727 3.53924 39.2727 4.02439V21.9512H5.72727V4.02439ZM42.5455 25.9756C42.5455 26.4608 42.33 26.926 41.9464 27.2691C41.5628 27.6122 41.0425 27.8049 40.5 27.8049H4.5C3.95751 27.8049 3.43724 27.6122 3.05365 27.2691C2.67005 26.926 2.45455 26.4608 2.45455 25.9756V24.1463H42.5455V25.9756ZM27 6.95122C27 7.24231 26.8707 7.52148 26.6405 7.72731C26.4104 7.93314 26.0982 8.04878 25.7727 8.04878H19.2273C18.9018 8.04878 18.5896 7.93314 18.3595 7.72731C18.1293 7.52148 18 7.24231 18 6.95122C18 6.66013 18.1293 6.38096 18.3595 6.17513C18.5896 5.9693 18.9018 5.85366 19.2273 5.85366H25.7727C26.0982 5.85366 26.4104 5.9693 26.6405 6.17513C26.8707 6.38096 27 6.66013 27 6.95122Z" fill="white"/>
</svg>
