<svg width="114" height="114" viewBox="0 0 114 114" fill="none" xmlns="http://www.w3.org/2000/svg">
<path d="M112.595 106.404L85.2133 79.0279C93.1497 69.4997 97.1072 57.2786 96.2626 44.9069C95.4179 32.5352 89.8361 20.9654 80.6783 12.6043C71.5205 4.24323 59.4918 -0.265391 47.0945 0.0163587C34.6972 0.298108 22.8858 5.34854 14.1173 14.117C5.34878 22.8855 0.298352 34.697 0.0166028 47.0943C-0.265147 59.4916 4.24348 71.5203 12.6046 80.6781C20.9656 89.8359 32.5355 95.4177 44.9072 96.2623C57.2789 97.107 69.5 93.1495 79.0282 85.2131L106.405 112.595C106.811 113.002 107.294 113.324 107.825 113.544C108.356 113.764 108.925 113.877 109.5 113.877C110.075 113.877 110.644 113.764 111.175 113.544C111.706 113.324 112.189 113.002 112.595 112.595C113.002 112.189 113.324 111.706 113.544 111.175C113.764 110.644 113.877 110.075 113.877 109.5C113.877 108.925 113.764 108.356 113.544 107.825C113.324 107.294 113.002 106.811 112.595 106.404ZM8.87503 48.2498C8.87503 40.4621 11.1843 32.8494 15.5109 26.3742C19.8375 19.899 25.987 14.8522 33.1819 11.872C40.3767 8.89183 48.2937 8.11207 55.9317 9.63136C63.5697 11.1507 70.5857 14.9008 76.0924 20.4075C81.5991 25.9141 85.3492 32.9301 86.8685 40.5681C88.3877 48.2061 87.608 56.1231 84.6278 63.3179C81.6476 70.5128 76.6008 76.6623 70.1256 80.9889C63.6504 85.3155 56.0377 87.6248 48.25 87.6248C37.8107 87.6132 27.8022 83.4611 20.4205 76.0793C13.0388 68.6976 8.88661 58.6891 8.87503 48.2498Z" fill="white" fill-opacity="0.7"/>
</svg>
