<svg width="40" height="40" viewBox="0 0 40 40" fill="none" xmlns="http://www.w3.org/2000/svg">
<path d="M31.6667 18H8.33333C6.49238 18 5 19.4652 5 21.2727V32.7273C5 34.5347 6.49238 36 8.33333 36H31.6667C33.5076 36 35 34.5347 35 32.7273V21.2727C35 19.4652 33.5076 18 31.6667 18Z" stroke="white" stroke-width="3" stroke-linecap="round" stroke-linejoin="round"/>
<path d="M12 18V11.3333C12 9.1232 12.8955 7.00358 14.4896 5.44078C16.0837 3.87797 18.2457 3 20.5 3C22.7543 3 24.9163 3.87797 26.5104 5.44078C28.1045 7.00358 29 9.1232 29 11.3333V18" stroke="white" stroke-width="3" stroke-linecap="round" stroke-linejoin="round"/>
</svg>
