<svg width="34" height="35" viewBox="0 0 34 35" fill="none" xmlns="http://www.w3.org/2000/svg">
<path d="M20.4539 0C20.7177 8.33954e-06 20.9747 0.0840096 21.1878 0.239906C21.401 0.395803 21.5593 0.61555 21.6401 0.8675L23.0107 5.14C23.5863 5.4225 24.137 5.74 24.6628 6.0975L29.0388 5.1525C29.2968 5.09724 29.5656 5.12556 29.8065 5.23339C30.0475 5.34121 30.2481 5.52298 30.3794 5.7525L33.8333 11.75C33.9652 11.9794 34.0211 12.2449 33.9929 12.5082C33.9646 12.7715 33.8538 13.019 33.6763 13.215L30.6735 16.54C30.7172 17.1776 30.7172 17.8174 30.6735 18.455L33.6763 21.785C33.8538 21.981 33.9646 22.2285 33.9929 22.4918C34.0211 22.7551 33.9652 23.0206 33.8333 23.25L30.3794 29.25C30.2477 29.4791 30.0469 29.6603 29.806 29.7677C29.5651 29.875 29.2965 29.903 29.0388 29.8475L24.6628 28.9025C24.1395 29.2575 23.5863 29.5775 23.0131 29.86L21.6401 34.1325C21.5593 34.3844 21.401 34.6042 21.1878 34.7601C20.9747 34.916 20.7177 35 20.4539 35H13.5461C13.2823 35 13.0253 34.916 12.8122 34.7601C12.599 34.6042 12.4407 34.3844 12.3599 34.1325L10.9918 29.8625C10.4178 29.5808 9.86402 29.2592 9.33467 28.9L4.96125 29.8475C4.70324 29.9028 4.43441 29.8744 4.19347 29.7666C3.95254 29.6588 3.75193 29.477 3.62056 29.2475L0.166678 23.25C0.0347884 23.0206 -0.0210758 22.7551 0.00714013 22.4918C0.0353561 22.2285 0.146194 21.981 0.323672 21.785L3.32651 18.455C3.283 17.8191 3.283 17.1809 3.32651 16.545L0.323672 13.215C0.146194 13.019 0.0353561 12.7715 0.00714013 12.5082C-0.0210758 12.2449 0.0347884 11.9794 0.166678 11.75L3.62056 5.75C3.7523 5.52093 3.95305 5.33969 4.19396 5.23232C4.43487 5.12496 4.70351 5.09701 4.96125 5.1525L9.33467 6.1C9.86297 5.7425 10.4162 5.42 10.9918 5.1375L12.3624 0.8675C12.4429 0.616361 12.6005 0.397196 12.8126 0.241375C13.0248 0.0855535 13.2807 0.00106417 13.5436 0H20.4514H20.4539ZM19.5418 2.5H14.4582L13.0427 6.9175L12.0883 7.385C11.6191 7.61533 11.1662 7.87761 10.7327 8.17L9.85051 8.77L5.32508 7.79L2.78326 12.21L5.88577 15.655L5.81101 16.715C5.77519 17.2377 5.77519 17.7623 5.81101 18.285L5.88577 19.345L2.77827 22.79L5.32258 27.21L9.84802 26.2325L10.7302 26.83C11.1637 27.1224 11.6166 27.3847 12.0858 27.615L13.0402 28.0825L14.4582 32.5H19.5468L20.9672 28.08L21.9192 27.615C22.3879 27.3852 22.84 27.1229 23.2723 26.83L24.152 26.2325L28.6799 27.21L31.2217 22.79L28.1167 19.345L28.1915 18.285C28.2274 17.7615 28.2274 17.236 28.1915 16.7125L28.1167 15.6525L31.2242 12.21L28.6799 7.79L24.152 8.765L23.2723 8.17C22.84 7.87708 22.3879 7.61477 21.9192 7.385L20.9672 6.92L19.5443 2.5H19.5418ZM17 10C18.9827 10 20.8843 10.7902 22.2863 12.1967C23.6883 13.6032 24.4759 15.5109 24.4759 17.5C24.4759 19.4891 23.6883 21.3968 22.2863 22.8033C20.8843 24.2098 18.9827 25 17 25C15.0173 25 13.1157 24.2098 11.7137 22.8033C10.3117 21.3968 9.52406 19.4891 9.52406 17.5C9.52406 15.5109 10.3117 13.6032 11.7137 12.1967C13.1157 10.7902 15.0173 10 17 10ZM17 12.5C15.6782 12.5 14.4105 13.0268 13.4758 13.9645C12.5411 14.9021 12.016 16.1739 12.016 17.5C12.016 18.8261 12.5411 20.0979 13.4758 21.0355C14.4105 21.9732 15.6782 22.5 17 22.5C18.3218 22.5 19.5895 21.9732 20.5242 21.0355C21.4589 20.0979 21.984 18.8261 21.984 17.5C21.984 16.1739 21.4589 14.9021 20.5242 13.9645C19.5895 13.0268 18.3218 12.5 17 12.5Z" fill="white"/>
</svg>
