<svg width="35" height="35" viewBox="0 0 35 35" fill="none" xmlns="http://www.w3.org/2000/svg">
<path d="M18.7487 18.75H25.1693C25.4732 19.9283 26.196 20.9552 27.2021 21.6383C28.2083 22.3213 29.4287 22.6135 30.6347 22.4601C31.8407 22.3068 32.9494 21.7184 33.753 20.8053C34.5566 19.8922 35 18.717 35 17.5C35 16.283 34.5566 15.1078 33.753 14.1947C32.9494 13.2816 31.8407 12.6932 30.6347 12.5399C29.4287 12.3865 28.2083 12.6787 27.2021 13.3618C26.196 14.0448 25.4732 15.0717 25.1693 16.25H18.7487V6.25001H25.1693C25.4732 7.42833 26.196 8.45524 27.2021 9.13826C28.2083 9.82127 29.4287 10.1135 30.6347 9.96015C31.8407 9.80681 32.9494 9.21843 33.753 8.3053C34.5566 7.39217 35 6.21697 35 5.00001C35 3.78304 34.5566 2.60785 33.753 1.69472C32.9494 0.781588 31.8407 0.193207 30.6347 0.0398637C29.4287 -0.113479 28.2083 0.178744 27.2021 0.861759C26.196 1.54477 25.4732 2.57169 25.1693 3.75001H18.7487C18.0865 3.75067 17.4517 4.01428 16.9835 4.48297C16.5153 4.95167 16.252 5.58717 16.2513 6.25001V16.25H9.83071C9.52679 15.0717 8.80402 14.0448 7.79787 13.3618C6.79173 12.6787 5.57128 12.3865 4.36531 12.5399C3.15933 12.6932 2.05062 13.2816 1.24699 14.1947C0.443366 15.1078 0 16.283 0 17.5C0 18.717 0.443366 19.8922 1.24699 20.8053C2.05062 21.7184 3.15933 22.3068 4.36531 22.4601C5.57128 22.6135 6.79173 22.3213 7.79787 21.6383C8.80402 20.9552 9.52679 19.9283 9.83071 18.75H16.2513V28.75C16.252 29.4128 16.5153 30.0483 16.9835 30.517C17.4517 30.9857 18.0865 31.2493 18.7487 31.25H25.1693C25.4732 32.4283 26.196 33.4552 27.2021 34.1382C28.2083 34.8213 29.4287 35.1135 30.6347 34.9601C31.8407 34.8068 32.9494 34.2184 33.753 33.3053C34.5566 32.3921 35 31.217 35 30C35 28.783 34.5566 27.6078 33.753 26.6947C32.9494 25.7816 31.8407 25.1932 30.6347 25.0398C29.4287 24.8865 28.2083 25.1787 27.2021 25.8617C26.196 26.5448 25.4732 27.5717 25.1693 28.75H18.7487V18.75ZM29.9866 15C30.4806 15 30.9634 15.1466 31.3741 15.4213C31.7848 15.696 32.1048 16.0865 32.2939 16.5433C32.4829 17.0001 32.5323 17.5028 32.436 17.9877C32.3396 18.4727 32.1018 18.9181 31.7525 19.2678C31.4033 19.6174 30.9583 19.8555 30.4738 19.952C29.9894 20.0484 29.4873 19.9989 29.0309 19.8097C28.5746 19.6205 28.1846 19.3 27.9102 18.8889C27.6358 18.4778 27.4893 17.9945 27.4893 17.5C27.49 16.8372 27.7533 16.2017 28.2215 15.733C28.6897 15.2643 29.3245 15.0007 29.9866 15ZM29.9866 2.50001C30.4806 2.50001 30.9634 2.64663 31.3741 2.92134C31.7848 3.19604 32.1048 3.58649 32.2939 4.0433C32.4829 4.50012 32.5323 5.00278 32.436 5.48773C32.3396 5.97269 32.1018 6.41814 31.7525 6.76777C31.4033 7.11741 30.9583 7.35551 30.4738 7.45197C29.9894 7.54843 29.4873 7.49893 29.0309 7.30971C28.5746 7.12049 28.1846 6.80006 27.9102 6.38893C27.6358 5.97781 27.4893 5.49446 27.4893 5.00001C27.49 4.33717 27.7533 3.70167 28.2215 3.23297C28.6897 2.76428 29.3245 2.50067 29.9866 2.50001ZM5.01336 20C4.51944 20 4.03661 19.8534 3.62592 19.5787C3.21524 19.304 2.89515 18.9135 2.70613 18.4567C2.51712 17.9999 2.46766 17.4972 2.56402 17.0123C2.66038 16.5273 2.89823 16.0819 3.24749 15.7322C3.59674 15.3826 4.04172 15.1445 4.52616 15.048C5.01059 14.9516 5.51272 15.0011 5.96905 15.1903C6.42538 15.3795 6.8154 15.7 7.08981 16.1111C7.36422 16.5222 7.51069 17.0055 7.51069 17.5C7.51003 18.1628 7.24671 18.7983 6.77851 19.267C6.31031 19.7357 5.67549 19.9993 5.01336 20ZM29.9866 27.5C30.4806 27.5 30.9634 27.6466 31.3741 27.9213C31.7848 28.196 32.1048 28.5865 32.2939 29.0433C32.4829 29.5001 32.5323 30.0028 32.436 30.4877C32.3396 30.9727 32.1018 31.4181 31.7525 31.7678C31.4033 32.1174 30.9583 32.3555 30.4738 32.452C29.9894 32.5484 29.4873 32.4989 29.0309 32.3097C28.5746 32.1205 28.1846 31.8 27.9102 31.3889C27.6358 30.9778 27.4893 30.4944 27.4893 30C27.49 29.3372 27.7533 28.7017 28.2215 28.233C28.6897 27.7643 29.3245 27.5007 29.9866 27.5Z" fill="white"/>
</svg>
